<svg viewBox="0 0 20 20" fill="none" xmlns="http://www.w3.org/2000/svg">
<g id="Number">
<path id="Ellipse 1" d="M20 10C20 15.5228 15.5228 20 10 20C4.47715 20 0 15.5228 0 10C0 4.47715 4.47715 0 10 0C15.5228 0 20 4.47715 20 10Z" fill="#C4C4C4"/>
<g id="Text">
<path id="Vector" d="M14.8138 12.13C14.3138 12.7967 13.6605 13.13 12.8538 13.13C12.0471 13.13 11.3938 12.7967 10.8938 12.13C10.4005 11.4567 10.1538 10.58 10.1538 9.5C10.1538 8.42 10.4005 7.54666 10.8938 6.88C11.3938 6.20666 12.0471 5.87 12.8538 5.87C13.6605 5.87 14.3138 6.20666 14.8138 6.88C15.3138 7.54666 15.5638 8.42 15.5638 9.5C15.5638 10.58 15.3138 11.4567 14.8138 12.13ZM11.8038 7.67C11.5371 8.13666 11.4038 8.74666 11.4038 9.5C11.4038 10.2533 11.5371 10.8633 11.8038 11.33C12.0771 11.7967 12.4271 12.03 12.8538 12.03C13.2871 12.03 13.6371 11.7967 13.9038 11.33C14.1771 10.8633 14.3138 10.2533 14.3138 9.5C14.3138 8.74666 14.1771 8.13666 13.9038 7.67C13.6371 7.20333 13.2871 6.97 12.8538 6.97C12.4271 6.97 12.0771 7.20333 11.8038 7.67Z" fill="black"/>
<path id="Vector_2" d="M4.52999 12.1C5.92332 10.9467 6.85665 10.11 7.32999 9.58999C7.80332 9.06999 8.03999 8.57665 8.03999 8.10999C8.03999 7.75665 7.92665 7.46665 7.69999 7.23999C7.47999 7.01332 7.19665 6.89999 6.84999 6.89999C6.47665 6.89999 6.17665 7.03999 5.94999 7.31999C5.72332 7.59332 5.60999 7.94999 5.60999 8.38999H4.35999C4.35999 7.62332 4.58665 6.99999 5.03999 6.51999C5.49999 6.03999 6.11332 5.79999 6.87999 5.79999C7.60665 5.79999 8.18999 6.00665 8.62999 6.41999C9.06999 6.83332 9.28999 7.37665 9.28999 8.04999C9.28999 8.68332 9.04665 9.30666 8.55999 9.91999C8.07999 10.5267 7.27999 11.22 6.15999 12H9.10999V13H4.52999V12.1Z" fill="black"/>
</g>
</g>
</svg>
